<svg id="mails" enable-background="new 0 0 300 300" height="512" viewBox="0 0 300 300" width="512" xmlns="http://www.w3.org/2000/svg" xmlns:xlink="http://www.w3.org/1999/xlink"><linearGradient id="SVGID_1_" gradientUnits="userSpaceOnUse" x1="62.759" x2="246.763" y1="236.416" y2="52.412"><stop offset="0" stop-color="#107eff"/><stop offset="1" stop-color="#8f16ff"/></linearGradient><g><path d="m243.824 84.52 4.519-4.52-4.519-4.52c-1.563-1.562-1.563-4.094 0-5.656 1.562-1.563 4.094-1.563 5.656 0l4.52 4.519 4.52-4.519c1.562-1.563 4.094-1.563 5.656 0 1.563 1.562 1.563 4.094 0 5.656l-4.52 4.52 4.519 4.52c1.563 1.562 1.563 4.094 0 5.656-.781.782-1.804 1.172-2.828 1.172-1.023 0-2.047-.39-2.828-1.172l-4.519-4.52-4.52 4.519c-.781.782-1.805 1.172-2.828 1.172-1.024 0-2.047-.39-2.828-1.172-1.562-1.562-1.562-4.093 0-5.655zm-179.824 110.95c-2.502 0-4.529 2.028-4.529 4.53s2.027 4.53 4.529 4.53 4.529-2.028 4.529-4.53-2.027-4.53-4.529-4.53zm124-63.47c2.209 0 4-1.791 4-4s-1.791-4-4-4-4 1.791-4 4 1.791 4 4 4zm-40-8c-2.209 0-4 1.791-4 4s1.791 4 4 4 4-1.791 4-4-1.791-4-4-4zm126 50v36c0 4.412-3.59 8-8 8h-25.494c.983 3.606 1.494 7.321 1.494 11.098v32.902c0 2.209-1.789 4-4 4h-144c-2.211 0-4-1.791-4-4v-32.902c0-16.369 9.469-31.25 24.121-37.91l31.879-14.491v-4.804c-13.528-7.791-23.666-20.612-27.848-35.889-2.625-.008-5.176-.77-7.648-2.442-3.914-2.644-6.344-6.777-6.492-11.056-.136-3.836 1.254-7.469 3.914-10.227 1.715-1.779 3.813-3.043 6.114-3.717.05-4.598.134-12.868.167-18.562h-52.207c-4.41 0-8-3.588-8-8v-40c0-4.412 3.59-8 8-8h64c4.41 0 8 3.588 8 8v8.15c18.242-12.3 45.581-15.231 65.332-6.289 14.617 6.619 22.668 18.743 22.668 34.139v30.584c2.484.74 4.738 2.164 6.492 4.144 2.652 3.002 3.895 7.022 3.399 11.03-.492 4.002-3.004 7.771-6.719 10.084-2.414 1.504-4.91 2.248-7.52 2.15-4.72 16.422-16.352 30.046-31.652 37.366v3.34l16 7.273v-9.971c0-4.412 3.59-8 8-8h56c4.41 0 8 3.588 8 8zm-56.002 0 20.002 15 20.002-15zm-97.654-92-19.654-19.653-4.472 2.981c-.671.447-1.444.672-2.218.672s-1.547-.225-2.219-.672l-4.472-2.981-19.653 19.653zm5.656-36.526-18.522 12.348 18.522 18.522zm-9.211-3.474h-45.578l22.789 15.193zm-54.789 3.474v30.87l18.522-18.522zm97.824 123.952c4.633 1.49 9.711 1.428 14.684-.182l1.777-.574c17.379-5.635 30.598-20.244 34.492-38.127.246-1.121.961-2.084 1.961-2.642 1-.559 2.191-.664 3.281-.277 1.816.64 3.246.478 4.926-.572 1.684-1.049 2.805-2.644 3.008-4.27.215-1.76-.301-3.447-1.457-4.754-1.137-1.29-2.777-2.028-4.496-2.028-2.211 0-4-1.791-4-4v-2.54c-9.326 5.707-19.35 8.706-29.348 8.706-3.625 0-7.25-.387-10.832-1.174-11.961-2.625-22.156-9.51-28.637-19.184-6.316 4.695-14.401 7.433-23.113 7.842-.039 3.703-.07 6.396-.07 6.396-.027 2.192-1.808 3.953-4 3.953-1.644 0-3.176.65-4.316 1.834-1.141 1.182-1.738 2.74-1.68 4.389.062 1.707 1.203 3.51 2.976 4.709 1.934 1.309 3.367 1.238 4.914.715 1.09-.367 2.278-.25 3.274.324.992.57 1.691 1.541 1.922 2.664 3.738 18.233 17.047 33.096 34.734 38.792zm-17.691 17.816c6.039 6.774 14.732 10.758 23.867 10.758 9.139 0 17.828-3.982 23.869-10.757l-9.646-4.385c-1.528-.696-2.461-2.272-2.332-3.946.019-.24.047-.474.078-.711l.01-1.673-1.006.325c-3.383 1.098-6.824 1.646-10.219 1.646-3.196 0-6.352-.486-9.379-1.459-1.16-.374-2.248-.887-3.375-1.327v2.287c.062.438.09.672.109.912.129 1.674-.804 3.25-2.332 3.946zm89.989 30.758h-22.122c-4.41 0-8-3.588-8-8v-17.242l-4.614-2.098c-7.558 9.607-19.14 15.34-31.386 15.34-12.24 0-23.828-5.733-31.388-15.339l-17.179 7.81c-11.804 5.365-19.433 17.387-19.433 30.627v28.902h28v-20c0-2.209 1.789-4 4-4s4 1.791 4 4v20h68v-20c0-2.209 1.789-4 4-4s4 1.791 4 4v20h24v-28.902c0-3.804-.652-7.527-1.878-11.098zm33.878-8v-32.002l-25.602 19.201c-.71.533-1.554.801-2.398.801s-1.688-.268-2.398-.801l-25.602-19.201v32.002zm-176-52c0 4.412-3.59 8-8 8h-48c-4.41 0-8-3.588-8-8v-32c0-4.412 3.59-8 8-8h48c4.41 0 8 3.588 8 8zm-47.518-32 15.518 11.084 15.518-11.084zm39.518 32v-28.227l-21.676 15.483c-.695.496-1.508.744-2.324.744s-1.629-.248-2.324-.744l-21.676-15.483v28.227z" fill="url(#SVGID_1_)"/></g></svg>