<svg id="Capa_1" enable-background="new 0 0 512 512" height="512" viewBox="0 0 512 512" width="512" xmlns="http://www.w3.org/2000/svg" xmlns:xlink="http://www.w3.org/1999/xlink"><linearGradient id="SVGID_1_" gradientUnits="userSpaceOnUse" x1="256" x2="256" y1="512" y2="0"><stop offset="0" stop-color="#ffe59a"/><stop offset="1" stop-color="#ffffd5"/></linearGradient><linearGradient id="SVGID_2_" gradientUnits="userSpaceOnUse" x1="256" x2="256" y1="407" y2="105"><stop offset="0" stop-color="#ffde00"/><stop offset="1" stop-color="#fd5900"/></linearGradient><g><g><circle cx="256" cy="256" fill="url(#SVGID_1_)" r="256"/></g><g><g><g><path d="m174.04 168.998c1.738 1.735 4.015 2.602 6.292 2.602s4.554-.867 6.293-2.602c3.477-3.47 3.477-9.091 0-12.56l-12.394-12.369c-3.477-3.47-9.109-3.47-12.585 0s-3.477 9.091 0 12.56zm157.436 2.784c2.277 0 4.554-.867 6.293-2.602l12.585-12.552c3.477-3.461 3.477-9.091 0-12.56s-9.109-3.47-12.585 0l-12.585 12.552c-3.477 3.461-3.477 9.091 0 12.56 1.738 1.735 4.015 2.602 6.292 2.602zm-182.259 57.571h-17.817c-4.919 0-8.9 3.973-8.9 8.882 0 4.91 3.981 8.882 8.9 8.882h17.817c4.919 0 8.9-3.973 8.9-8.882s-3.98-8.882-8.9-8.882zm106.783-88.824c4.919 0 8.9-3.973 8.9-8.882v-17.765c0-4.91-3.98-8.882-8.9-8.882s-8.9 3.973-8.9 8.882v17.765c0 4.91 3.981 8.882 8.9 8.882zm17.8 248.706h-35.6c-4.919 0-8.9 3.973-8.9 8.882 0 4.91 3.981 8.882 8.9 8.882h35.6c4.919 0 8.9-3.973 8.9-8.882s-3.981-8.882-8.9-8.882zm64.003-81.927c-3.477-3.47-9.109-3.47-12.585 0s-3.477 9.091 0 12.56l12.603 12.578c1.738 1.735 4.016 2.602 6.293 2.602s4.554-.867 6.292-2.602c3.477-3.47 3.477-9.091 0-12.56zm42.797-77.955h-17.8c-4.919 0-8.9 3.973-8.9 8.882 0 4.91 3.981 8.882 8.9 8.882h17.8c4.919 0 8.9-3.973 8.9-8.882s-3.981-8.882-8.9-8.882zm-74.816-53.745c-19.278-15.275-44.378-20.792-68.888-15.093-28.595 6.627-51.575 29.31-58.545 57.787-5.754 23.455-1.339 46.91 12.429 66.045 13.559 18.84 20.72 40.526 20.72 62.732 0 13.454 10.969 24.392 24.44 24.392h40.207c13.437 0 24.353-10.903 24.353-24.305 0-21.338 7.422-43.111 22.042-64.709 8.865-13.115 13.559-28.399 13.559-44.221-.001-24.531-11.057-47.353-30.317-62.628zm-49.784 142.568c-4.915 0-8.9-3.977-8.9-8.882 0-4.906 3.985-8.882 8.9-8.882s8.9 3.976 8.9 8.882c0 4.905-3.985 8.882-8.9 8.882zm8.9-44.411c0 4.91-3.98 8.882-8.9 8.882s-8.9-3.973-8.9-8.882v-53.294c0-4.91 3.98-8.882 8.9-8.882s8.9 3.973 8.9 8.882zm-90.703 33.543-12.603 12.578c-3.477 3.47-3.477 9.091 0 12.56 1.738 1.735 4.015 2.602 6.292 2.602s4.554-.867 6.293-2.602l12.603-12.578c3.477-3.47 3.477-9.091 0-12.56s-9.109-3.47-12.585 0z" fill="url(#SVGID_2_)"/></g></g></g></g></svg>